<mxfile host="app.diagrams.net" modified="2021-09-30T01:33:27.015Z" agent="5.0 (Windows NT 10.0; Win64; x64) AppleWebKit/537.36 (KHTML, like Gecko) Chrome/93.0.4577.82 Safari/537.36" etag="Ju6r2KBVD6AaQXcNlDYc" version="15.3.0" type="github">
  <diagram id="slnVbbzJdbbrH4En2uYu" name="Page-1">
    <mxGraphModel dx="1203" dy="1731" grid="1" gridSize="10" guides="1" tooltips="1" connect="1" arrows="1" fold="1" page="1" pageScale="1" pageWidth="850" pageHeight="1100" background="#F4F1DE" math="0" shadow="0">
      <root>
        <mxCell id="0" />
        <mxCell id="1" parent="0" />
        <mxCell id="NULseq0uM478Y7bA-dPA-58" value="" style="whiteSpace=wrap;html=1;rounded=1;fillColor=#F2CC8F;strokeColor=#E07A5F;fontColor=#393C56;" vertex="1" parent="1">
          <mxGeometry x="300" y="-60" width="610" height="540" as="geometry" />
        </mxCell>
        <mxCell id="NULseq0uM478Y7bA-dPA-47" style="edgeStyle=none;rounded=1;orthogonalLoop=1;jettySize=auto;html=1;exitX=0.5;exitY=1;exitDx=0;exitDy=0;exitPerimeter=0;startArrow=none;startFill=0;endArrow=none;endFill=0;strokeColor=#E07A5F;labelBackgroundColor=#F4F1DE;fontColor=#393C56;" edge="1" parent="1" source="NULseq0uM478Y7bA-dPA-13" target="NULseq0uM478Y7bA-dPA-19">
          <mxGeometry relative="1" as="geometry" />
        </mxCell>
        <mxCell id="NULseq0uM478Y7bA-dPA-13" value="" style="html=1;outlineConnect=0;fillColor=#4D4D4D;strokeColor=#E07A5F;gradientDirection=north;strokeWidth=2;shape=mxgraph.networks.cloud;fontColor=#393C56;" vertex="1" parent="1">
          <mxGeometry x="80" y="30" width="190" height="100" as="geometry" />
        </mxCell>
        <mxCell id="NULseq0uM478Y7bA-dPA-22" value="" style="whiteSpace=wrap;html=1;rounded=1;" vertex="1" parent="1">
          <mxGeometry x="350" y="-20" width="510" height="450" as="geometry" />
        </mxCell>
        <mxCell id="NULseq0uM478Y7bA-dPA-14" value="" style="ellipse;shape=cloud;whiteSpace=wrap;html=1;direction=east;fillColor=#CCCCCC;strokeColor=#E07A5F;fontColor=#393C56;" vertex="1" parent="1">
          <mxGeometry x="120" y="50" width="120" height="80" as="geometry" />
        </mxCell>
        <mxCell id="NULseq0uM478Y7bA-dPA-26" value="" style="whiteSpace=wrap;html=1;strokeColor=#E07A5F;fillColor=#F2CC8F;rounded=1;fontColor=#393C56;" vertex="1" parent="1">
          <mxGeometry x="540" y="160" width="280" height="250" as="geometry" />
        </mxCell>
        <mxCell id="NULseq0uM478Y7bA-dPA-54" style="edgeStyle=none;rounded=1;orthogonalLoop=1;jettySize=auto;html=1;exitX=0.5;exitY=1;exitDx=0;exitDy=0;startArrow=none;startFill=0;endArrow=none;endFill=0;strokeColor=#E07A5F;labelBackgroundColor=#F4F1DE;fontColor=#393C56;" edge="1" parent="1" source="NULseq0uM478Y7bA-dPA-15">
          <mxGeometry relative="1" as="geometry">
            <mxPoint x="679" y="350" as="targetPoint" />
          </mxGeometry>
        </mxCell>
        <mxCell id="NULseq0uM478Y7bA-dPA-15" value="" style="shape=image;html=1;verticalAlign=top;verticalLabelPosition=bottom;imageAspect=0;aspect=fixed;image=https://cdn3.iconfinder.com/data/icons/prored/Network%20Online.png;labelBackgroundColor=#F4F1DE;fillColor=#F2CC8F;strokeColor=#E07A5F;fontColor=#393C56;" vertex="1" parent="1">
          <mxGeometry x="632" y="227" width="93" height="93" as="geometry" />
        </mxCell>
        <mxCell id="NULseq0uM478Y7bA-dPA-19" value="" style="shape=image;html=1;verticalAlign=top;verticalLabelPosition=bottom;imageAspect=0;aspect=fixed;image=https://cdn2.iconfinder.com/data/icons/whcompare-isometric-web-hosting-servers/50/root-access-128.png;labelBackgroundColor=#F4F1DE;fillColor=#F2CC8F;strokeColor=#E07A5F;fontColor=#393C56;" vertex="1" parent="1">
          <mxGeometry x="111" y="219.5" width="128" height="128" as="geometry" />
        </mxCell>
        <mxCell id="NULseq0uM478Y7bA-dPA-42" style="edgeStyle=none;rounded=1;orthogonalLoop=1;jettySize=auto;html=1;exitX=0.5;exitY=1;exitDx=0;exitDy=0;startArrow=none;startFill=0;endArrow=none;endFill=0;strokeColor=#E07A5F;labelBackgroundColor=#F4F1DE;fontColor=#393C56;" edge="1" parent="1" source="NULseq0uM478Y7bA-dPA-17" target="NULseq0uM478Y7bA-dPA-24">
          <mxGeometry relative="1" as="geometry" />
        </mxCell>
        <mxCell id="NULseq0uM478Y7bA-dPA-45" style="edgeStyle=none;rounded=1;orthogonalLoop=1;jettySize=auto;html=1;exitX=0;exitY=0.5;exitDx=0;exitDy=0;startArrow=none;startFill=0;endArrow=none;endFill=0;strokeColor=#E07A5F;labelBackgroundColor=#F4F1DE;fontColor=#393C56;" edge="1" parent="1" source="NULseq0uM478Y7bA-dPA-17">
          <mxGeometry relative="1" as="geometry">
            <mxPoint x="270" y="105" as="targetPoint" />
            <Array as="points">
              <mxPoint x="310" y="105" />
            </Array>
          </mxGeometry>
        </mxCell>
        <mxCell id="NULseq0uM478Y7bA-dPA-17" value="" style="image;html=1;image=img/lib/clip_art/networking/Firewall-page1_128x128.png;labelBackgroundColor=#F4F1DE;fillColor=#F2CC8F;strokeColor=#E07A5F;fontColor=#393C56;" vertex="1" parent="1">
          <mxGeometry x="364.03" y="50" width="122" height="110" as="geometry" />
        </mxCell>
        <mxCell id="NULseq0uM478Y7bA-dPA-21" value="" style="shape=image;html=1;verticalAlign=top;verticalLabelPosition=bottom;imageAspect=0;aspect=fixed;image=https://cdn3.iconfinder.com/data/icons/prored/Network%20Online.png;labelBackgroundColor=#F4F1DE;fillColor=#F2CC8F;strokeColor=#E07A5F;fontColor=#393C56;" vertex="1" parent="1">
          <mxGeometry x="720" y="227" width="93" height="93" as="geometry" />
        </mxCell>
        <mxCell id="NULseq0uM478Y7bA-dPA-34" style="rounded=1;orthogonalLoop=1;jettySize=auto;html=1;exitX=0.1;exitY=1;exitDx=0;exitDy=0;exitPerimeter=0;entryX=0.538;entryY=0.247;entryDx=0;entryDy=0;entryPerimeter=0;endArrow=none;endFill=0;labelBackgroundColor=#F4F1DE;strokeColor=#E07A5F;fontColor=#393C56;" edge="1" parent="1" source="NULseq0uM478Y7bA-dPA-3" target="NULseq0uM478Y7bA-dPA-23">
          <mxGeometry relative="1" as="geometry" />
        </mxCell>
        <mxCell id="NULseq0uM478Y7bA-dPA-35" style="edgeStyle=none;rounded=1;orthogonalLoop=1;jettySize=auto;html=1;exitX=0.5;exitY=1;exitDx=0;exitDy=0;exitPerimeter=0;entryX=0.516;entryY=0.247;entryDx=0;entryDy=0;entryPerimeter=0;endArrow=none;endFill=0;labelBackgroundColor=#F4F1DE;strokeColor=#E07A5F;fontColor=#393C56;" edge="1" parent="1" source="NULseq0uM478Y7bA-dPA-3" target="NULseq0uM478Y7bA-dPA-15">
          <mxGeometry relative="1" as="geometry" />
        </mxCell>
        <mxCell id="NULseq0uM478Y7bA-dPA-36" style="edgeStyle=none;rounded=1;orthogonalLoop=1;jettySize=auto;html=1;exitX=0.9;exitY=1;exitDx=0;exitDy=0;exitPerimeter=0;entryX=0.538;entryY=0.247;entryDx=0;entryDy=0;entryPerimeter=0;strokeColor=none;labelBackgroundColor=#F4F1DE;fontColor=#393C56;" edge="1" parent="1" source="NULseq0uM478Y7bA-dPA-3" target="NULseq0uM478Y7bA-dPA-21">
          <mxGeometry relative="1" as="geometry" />
        </mxCell>
        <mxCell id="NULseq0uM478Y7bA-dPA-37" style="edgeStyle=none;rounded=1;orthogonalLoop=1;jettySize=auto;html=1;exitX=0.9;exitY=1;exitDx=0;exitDy=0;exitPerimeter=0;strokeColor=#E07A5F;startArrow=none;startFill=0;endArrow=none;endFill=0;labelBackgroundColor=#F4F1DE;fontColor=#393C56;" edge="1" parent="1" source="NULseq0uM478Y7bA-dPA-3">
          <mxGeometry relative="1" as="geometry">
            <mxPoint x="780" y="250" as="targetPoint" />
          </mxGeometry>
        </mxCell>
        <mxCell id="NULseq0uM478Y7bA-dPA-40" style="edgeStyle=none;rounded=1;orthogonalLoop=1;jettySize=auto;html=1;exitX=0;exitY=0.5;exitDx=0;exitDy=0;exitPerimeter=0;entryX=0.492;entryY=0.5;entryDx=0;entryDy=0;entryPerimeter=0;startArrow=none;startFill=0;endArrow=none;endFill=0;strokeColor=#E07A5F;labelBackgroundColor=#F4F1DE;fontColor=#393C56;" edge="1" parent="1" source="NULseq0uM478Y7bA-dPA-3" target="NULseq0uM478Y7bA-dPA-17">
          <mxGeometry relative="1" as="geometry" />
        </mxCell>
        <mxCell id="NULseq0uM478Y7bA-dPA-3" value="" style="fontColor=#393C56;verticalAlign=top;verticalLabelPosition=bottom;labelPosition=center;align=center;html=1;outlineConnect=0;fillColor=#000000;strokeColor=#E07A5F;gradientDirection=north;strokeWidth=2;shape=mxgraph.networks.load_balancer;" vertex="1" parent="1">
          <mxGeometry x="613.5" y="80" width="130" height="50" as="geometry" />
        </mxCell>
        <mxCell id="NULseq0uM478Y7bA-dPA-52" style="edgeStyle=none;rounded=1;orthogonalLoop=1;jettySize=auto;html=1;exitX=0.5;exitY=1;exitDx=0;exitDy=0;startArrow=none;startFill=0;endArrow=none;endFill=0;strokeColor=#E07A5F;labelBackgroundColor=#F4F1DE;fontColor=#393C56;" edge="1" parent="1" source="NULseq0uM478Y7bA-dPA-23">
          <mxGeometry relative="1" as="geometry">
            <mxPoint x="586" y="349" as="targetPoint" />
          </mxGeometry>
        </mxCell>
        <mxCell id="NULseq0uM478Y7bA-dPA-23" value="" style="shape=image;html=1;verticalAlign=top;verticalLabelPosition=bottom;imageAspect=0;aspect=fixed;image=https://cdn3.iconfinder.com/data/icons/prored/Network%20Online.png;labelBackgroundColor=#F4F1DE;fillColor=#F2CC8F;strokeColor=#E07A5F;fontColor=#393C56;" vertex="1" parent="1">
          <mxGeometry x="539" y="227" width="93" height="93" as="geometry" />
        </mxCell>
        <mxCell id="NULseq0uM478Y7bA-dPA-50" style="edgeStyle=orthogonalEdgeStyle;rounded=1;orthogonalLoop=1;jettySize=auto;html=1;startArrow=none;startFill=0;endArrow=none;endFill=0;strokeColor=#E07A5F;labelBackgroundColor=#F4F1DE;fontColor=#393C56;" edge="1" parent="1" source="NULseq0uM478Y7bA-dPA-24" target="NULseq0uM478Y7bA-dPA-22">
          <mxGeometry relative="1" as="geometry">
            <Array as="points">
              <mxPoint x="570" y="390" />
              <mxPoint x="570" y="390" />
            </Array>
          </mxGeometry>
        </mxCell>
        <mxCell id="NULseq0uM478Y7bA-dPA-51" style="rounded=1;orthogonalLoop=1;jettySize=auto;html=1;startArrow=none;startFill=0;endArrow=none;endFill=0;strokeColor=#E07A5F;edgeStyle=orthogonalEdgeStyle;labelBackgroundColor=#F4F1DE;fontColor=#393C56;" edge="1" parent="1" source="NULseq0uM478Y7bA-dPA-24">
          <mxGeometry relative="1" as="geometry">
            <mxPoint x="777" y="316" as="targetPoint" />
            <Array as="points">
              <mxPoint x="440" y="350" />
              <mxPoint x="777" y="350" />
            </Array>
          </mxGeometry>
        </mxCell>
        <mxCell id="NULseq0uM478Y7bA-dPA-24" value="" style="verticalLabelPosition=bottom;sketch=0;aspect=fixed;html=1;verticalAlign=top;strokeColor=#E07A5F;align=center;outlineConnect=0;shape=mxgraph.citrix.proxy_server;fillColor=#F2CC8F;fontColor=#393C56;" vertex="1" parent="1">
          <mxGeometry x="377" y="227" width="96.05" height="113" as="geometry" />
        </mxCell>
        <mxCell id="NULseq0uM478Y7bA-dPA-43" style="edgeStyle=none;rounded=1;orthogonalLoop=1;jettySize=auto;html=1;exitX=0.5;exitY=1;exitDx=0;exitDy=0;entryX=0.5;entryY=0.909;entryDx=0;entryDy=0;entryPerimeter=0;startArrow=none;startFill=0;endArrow=none;endFill=0;strokeColor=#E07A5F;labelBackgroundColor=#F4F1DE;fontColor=#393C56;" edge="1" parent="1" source="NULseq0uM478Y7bA-dPA-17" target="NULseq0uM478Y7bA-dPA-17">
          <mxGeometry relative="1" as="geometry" />
        </mxCell>
        <mxCell id="NULseq0uM478Y7bA-dPA-46" style="edgeStyle=none;rounded=1;orthogonalLoop=1;jettySize=auto;html=1;exitX=0;exitY=0.5;exitDx=0;exitDy=0;startArrow=none;startFill=0;endArrow=none;endFill=0;strokeColor=#E07A5F;labelBackgroundColor=#F4F1DE;fontColor=#393C56;" edge="1" parent="1" source="NULseq0uM478Y7bA-dPA-17" target="NULseq0uM478Y7bA-dPA-17">
          <mxGeometry relative="1" as="geometry">
            <Array as="points">
              <mxPoint x="380" y="105" />
            </Array>
          </mxGeometry>
        </mxCell>
        <mxCell id="NULseq0uM478Y7bA-dPA-53" style="edgeStyle=none;rounded=1;orthogonalLoop=1;jettySize=auto;html=1;exitX=0.5;exitY=1;exitDx=0;exitDy=0;entryX=0.505;entryY=0.892;entryDx=0;entryDy=0;entryPerimeter=0;startArrow=none;startFill=0;endArrow=none;endFill=0;strokeColor=#E07A5F;labelBackgroundColor=#F4F1DE;fontColor=#393C56;" edge="1" parent="1" source="NULseq0uM478Y7bA-dPA-23" target="NULseq0uM478Y7bA-dPA-23">
          <mxGeometry relative="1" as="geometry" />
        </mxCell>
        <mxCell id="NULseq0uM478Y7bA-dPA-55" style="edgeStyle=none;rounded=1;orthogonalLoop=1;jettySize=auto;html=1;exitX=0.5;exitY=1;exitDx=0;exitDy=0;startArrow=none;startFill=0;endArrow=none;endFill=0;strokeColor=#E07A5F;labelBackgroundColor=#F4F1DE;fontColor=#393C56;" edge="1" parent="1" source="NULseq0uM478Y7bA-dPA-15" target="NULseq0uM478Y7bA-dPA-15">
          <mxGeometry relative="1" as="geometry" />
        </mxCell>
        <mxCell id="NULseq0uM478Y7bA-dPA-56" style="edgeStyle=none;rounded=1;orthogonalLoop=1;jettySize=auto;html=1;exitX=0.5;exitY=1;exitDx=0;exitDy=0;startArrow=none;startFill=0;endArrow=none;endFill=0;strokeColor=#E07A5F;labelBackgroundColor=#F4F1DE;fontColor=#393C56;" edge="1" parent="1" source="NULseq0uM478Y7bA-dPA-15" target="NULseq0uM478Y7bA-dPA-15">
          <mxGeometry relative="1" as="geometry" />
        </mxCell>
        <mxCell id="NULseq0uM478Y7bA-dPA-57" style="edgeStyle=none;rounded=1;orthogonalLoop=1;jettySize=auto;html=1;exitX=0.5;exitY=1;exitDx=0;exitDy=0;startArrow=none;startFill=0;endArrow=none;endFill=0;strokeColor=#E07A5F;labelBackgroundColor=#F4F1DE;fontColor=#393C56;" edge="1" parent="1" source="NULseq0uM478Y7bA-dPA-15" target="NULseq0uM478Y7bA-dPA-15">
          <mxGeometry relative="1" as="geometry">
            <Array as="points">
              <mxPoint x="679" y="300" />
            </Array>
          </mxGeometry>
        </mxCell>
        <mxCell id="NULseq0uM478Y7bA-dPA-59" value="Azure Load Balancer&lt;br&gt;13.82.97.95" style="text;html=1;strokeColor=none;fillColor=none;align=center;verticalAlign=middle;whiteSpace=wrap;rounded=0;fontColor=#393C56;" vertex="1" parent="1">
          <mxGeometry x="590" y="50" width="170" height="20" as="geometry" />
        </mxCell>
        <mxCell id="NULseq0uM478Y7bA-dPA-60" value="Azure Security Group" style="text;html=1;strokeColor=none;fillColor=none;align=center;verticalAlign=middle;whiteSpace=wrap;rounded=0;fontColor=#393C56;" vertex="1" parent="1">
          <mxGeometry x="377" y="20" width="85.97" height="20" as="geometry" />
        </mxCell>
        <mxCell id="NULseq0uM478Y7bA-dPA-61" value="Internet" style="text;html=1;strokeColor=none;fillColor=none;align=center;verticalAlign=middle;whiteSpace=wrap;rounded=0;fontColor=#393C56;" vertex="1" parent="1">
          <mxGeometry x="140" y="80" width="70" height="20" as="geometry" />
        </mxCell>
        <mxCell id="NULseq0uM478Y7bA-dPA-62" value="Web-1&lt;br&gt;10.0.0.5" style="text;html=1;strokeColor=none;fillColor=none;align=center;verticalAlign=middle;whiteSpace=wrap;rounded=0;fontColor=#393C56;" vertex="1" parent="1">
          <mxGeometry x="550" y="347.5" width="70" height="32.5" as="geometry" />
        </mxCell>
        <mxCell id="NULseq0uM478Y7bA-dPA-63" value="Web-2&lt;br&gt;10.0.0.6" style="text;html=1;strokeColor=none;fillColor=none;align=center;verticalAlign=middle;whiteSpace=wrap;rounded=0;fontColor=#393C56;" vertex="1" parent="1">
          <mxGeometry x="640" y="347.5" width="70" height="32.5" as="geometry" />
        </mxCell>
        <mxCell id="NULseq0uM478Y7bA-dPA-64" value="Web-3&lt;br&gt;10.0.0.7" style="text;html=1;strokeColor=none;fillColor=none;align=center;verticalAlign=middle;whiteSpace=wrap;rounded=0;fontColor=#393C56;" vertex="1" parent="1">
          <mxGeometry x="731.5" y="347.5" width="70" height="32.5" as="geometry" />
        </mxCell>
        <mxCell id="NULseq0uM478Y7bA-dPA-65" value="Load Balancer Backend Pool" style="text;html=1;strokeColor=none;fillColor=none;align=center;verticalAlign=middle;whiteSpace=wrap;rounded=0;fontColor=#393C56;" vertex="1" parent="1">
          <mxGeometry x="580" y="390" width="190" height="20" as="geometry" />
        </mxCell>
        <mxCell id="NULseq0uM478Y7bA-dPA-66" value="Jump-Box VM&lt;br&gt;Ansible&lt;br&gt;52.142..1.81&lt;br&gt;10.0.0.4" style="text;html=1;strokeColor=none;fillColor=none;align=center;verticalAlign=middle;whiteSpace=wrap;rounded=0;sketch=0;fontColor=#393C56;" vertex="1" parent="1">
          <mxGeometry x="377" y="347.5" width="90" height="70" as="geometry" />
        </mxCell>
        <mxCell id="NULseq0uM478Y7bA-dPA-67" value="Workstation" style="text;html=1;strokeColor=none;fillColor=none;align=center;verticalAlign=middle;whiteSpace=wrap;rounded=0;sketch=0;fontColor=#393C56;rotation=0;" vertex="1" parent="1">
          <mxGeometry x="139" y="347.5" width="70" height="20" as="geometry" />
        </mxCell>
        <mxCell id="NULseq0uM478Y7bA-dPA-68" value="HTTP" style="text;html=1;strokeColor=none;fillColor=none;align=center;verticalAlign=middle;whiteSpace=wrap;rounded=0;sketch=0;fontColor=#393C56;" vertex="1" parent="1">
          <mxGeometry x="486.03" y="80" width="40" height="20" as="geometry" />
        </mxCell>
        <mxCell id="NULseq0uM478Y7bA-dPA-69" value="SSH&lt;br&gt;HTTP" style="text;html=1;strokeColor=none;fillColor=none;align=center;verticalAlign=middle;whiteSpace=wrap;rounded=0;sketch=0;fontColor=#393C56;" vertex="1" parent="1">
          <mxGeometry x="180" y="170" width="40" height="20" as="geometry" />
        </mxCell>
        <mxCell id="NULseq0uM478Y7bA-dPA-70" value="SSH" style="text;html=1;strokeColor=none;fillColor=none;align=center;verticalAlign=middle;whiteSpace=wrap;rounded=0;sketch=0;fontColor=#393C56;" vertex="1" parent="1">
          <mxGeometry x="433.05" y="180" width="40" height="20" as="geometry" />
        </mxCell>
        <mxCell id="NULseq0uM478Y7bA-dPA-71" value="SSH" style="text;html=1;strokeColor=none;fillColor=none;align=center;verticalAlign=middle;whiteSpace=wrap;rounded=0;sketch=0;fontColor=#393C56;" vertex="1" parent="1">
          <mxGeometry x="486.03000000000003" y="320" width="40" height="20" as="geometry" />
        </mxCell>
        <mxCell id="NULseq0uM478Y7bA-dPA-76" value="Container" style="text;html=1;strokeColor=none;fillColor=none;align=center;verticalAlign=middle;whiteSpace=wrap;rounded=0;sketch=0;fontColor=#393C56;" vertex="1" parent="1">
          <mxGeometry x="703.5" y="320" width="40" height="20" as="geometry" />
        </mxCell>
        <mxCell id="NULseq0uM478Y7bA-dPA-77" value="DVWA" style="text;html=1;strokeColor=none;fillColor=none;align=center;verticalAlign=middle;whiteSpace=wrap;rounded=0;sketch=0;fontColor=#393C56;" vertex="1" parent="1">
          <mxGeometry x="600" y="320" width="40" height="20" as="geometry" />
        </mxCell>
        <mxCell id="NULseq0uM478Y7bA-dPA-78" value="Azure Virtual Subnet:&amp;nbsp;" style="text;html=1;strokeColor=none;fillColor=none;align=center;verticalAlign=middle;whiteSpace=wrap;rounded=0;sketch=0;fontColor=#393C56;" vertex="1" parent="1">
          <mxGeometry x="530" y="-20" width="150" height="20" as="geometry" />
        </mxCell>
        <mxCell id="NULseq0uM478Y7bA-dPA-79" value="Azure Virtual Network:&amp;nbsp;" style="text;html=1;strokeColor=none;fillColor=none;align=center;verticalAlign=middle;whiteSpace=wrap;rounded=0;sketch=0;fontColor=#393C56;" vertex="1" parent="1">
          <mxGeometry x="513.5" y="-40" width="190" height="20" as="geometry" />
        </mxCell>
        <mxCell id="NULseq0uM478Y7bA-dPA-80" value="Azure Resource Group" style="text;html=1;strokeColor=none;fillColor=none;align=center;verticalAlign=middle;whiteSpace=wrap;rounded=0;sketch=0;fontColor=#393C56;" vertex="1" parent="1">
          <mxGeometry x="540" y="-80" width="140" height="20" as="geometry" />
        </mxCell>
      </root>
    </mxGraphModel>
  </diagram>
</mxfile>
